<svg id="Layer_1" data-name="Layer 1" xmlns="http://www.w3.org/2000/svg" viewBox="0 0 250 250">
  <path id="fullLogo" d="M169.1311,123.5688l-42.7-42.7a2.025,2.025,0,0,0-2.8636,0l-42.7,42.7a2.0247,2.0247,0,0,0,0,2.8634l42.7,42.7a2.0246,2.0246,0,0,0,2.8636,0l42.7-42.7A2.0247,2.0247,0,0,0,169.1311,123.5688Zm-24.2347,2.0772L125.645,144.8971a.9124.9124,0,0,1-1.2909,0L105.1029,125.646a.9131.9131,0,0,1,0-1.291l19.2512-19.2511a.9124.9124,0,0,1,1.2909,0l19.2514,19.2511A.9131.9131,0,0,1,144.8964,125.646ZM125,198.8782c-9.6392,0-32.7782-22.0983-42.28-31.5985S51.1218,134.6392,51.1218,125,73.22,92.2231,82.72,82.7216,115.3608,51.1231,125,51.1231s32.7782,22.097,42.2784,31.5985,31.6,32.6392,31.6,42.2784-22.0983,32.7782-31.6,42.28S134.6392,198.8782,125,198.8782Zm-.0255-139.0291c-3.0111.2028-16.6129,9.5742-36.0827,29.0427s-28.8411,33.0716-29.0439,36.1337c.2028,3.0111,9.5742,16.6129,29.0439,36.0827s33.0716,28.8411,36.1337,29.0439c3.0111-.2028,16.6129-9.5742,36.0827-29.0439,19.4162-19.4162,28.79-32.9963,29.0427-36.1082-.2538-3.1106-9.6265-16.6907-29.0427-36.1069C141.6384,69.4233,128.0366,60.0519,124.9745,59.8491ZM125,211.66c-25.9167,0-86.66-60.7432-86.66-86.66S99.0833,38.3414,125,38.3414,211.6586,99.0833,211.6586,125,150.9167,211.66,125,211.66Zm0-165.8372c-21.4593,0-79.1786,57.718-79.1786,79.1773S103.5407,204.1786,125,204.1786,204.1773,146.4593,204.1773,125,146.4593,45.8227,125,45.8227ZM125,224.44c-37.1744,0-99.44-62.266-99.44-99.44S87.8256,25.5609,125,25.5609,224.4391,87.8269,224.4391,125,162.1731,224.44,125,224.44Zm0-192.6455C91.028,31.7949,31.7936,91.028,31.7936,125S91.028,218.2064,125,218.2064,218.2051,158.972,218.2051,125,158.972,31.7949,125,31.7949Zm0,205.4259c-22.87,0-50.6716-14.1489-74.3718-37.849S12.7805,147.87,12.7805,125,26.9294,74.3284,50.6282,50.63,102.13,12.7805,125,12.7805s50.6716,14.1489,74.3705,37.849S237.22,102.1314,237.22,125s-14.1489,50.6716-37.849,74.3718S147.8686,237.2208,125,237.2208Zm0-219.4537C78.9006,17.7671,17.7671,78.9006,17.7671,125S78.9006,232.2341,125,232.2341,232.2329,171.1007,232.2329,125,171.0994,17.7671,125,17.7671ZM125,250c-28.6843,0-59.691-14.5545-85.0683-39.9317S0,153.6843,0,125,14.5545,65.309,39.9317,39.9317,96.3157,0,125,0s59.691,14.5545,85.0683,39.9317S250,96.3157,250,125s-14.5545,59.691-39.9317,85.0683S153.6843,250,125,250ZM125,3.7394c-27.2929,0-58.1057,14.5188-82.4231,38.8375S3.7394,97.7071,3.7394,125s14.5188,58.1057,38.8375,82.4231S97.7071,246.2606,125,246.2606s58.1057-14.5188,82.4231-38.8375,38.8375-55.13,38.8375-82.4231-14.5188-58.1057-38.8375-82.4231S152.2929,3.7394,125,3.7394Z" style="fill: #00e7ff"/>
</svg>
